<?xml version="1.0" encoding="UTF-8" standalone="no"?>

<svg
  width="48"
  height="48"
  viewBox="0 0 48 48"
  version="1.1"
  id="svg1"
  xml:space="preserve"
  xmlns="http://www.w3.org/2000/svg"
  xmlns:svg="http://www.w3.org/2000/svg"><defs
     id="defs1" /><g
     id="layer1"
     transform="translate(-172.40617,-2066.2046)"><path
       id="path2"
       style="opacity:1;fill:#ffffff;fill-opacity:1;stroke-width:10;stroke-linecap:round;stroke-linejoin:round"
       d="m 176.41877,2066.2046 h 39.97478 c 2.22298,0 4.01261,1.7896 4.01261,4.0126 v 39.9747 c 0,2.223 -1.78963,4.0127 -4.01261,4.0127 h -39.97478 c -2.22299,0 -4.01261,-1.7897 -4.01261,-4.0127 v -39.9747 c 0,-2.223 1.78962,-4.0126 4.01261,-4.0126 z" /><path
       d="m -168.40317,2152.0231 -18.92445,9.1969 v 219.1644 l 27.64352,-7.4074 v -111.9317 l 5.2009,1.5475 27.64352,-11.4668 v -89.9081 z m 13.91997,110.5697 v 110.3842 l 27.64352,7.4074 v -112.4183 z m 66.131878,-110.5697 -26.945118,9.1969 v 219.1644 l 26.945118,-7.2197 v -110.5719 l 5.200893,-1.5452 v 110.574 l 13.472562,-3.4636 13.474744,3.4636 v -110.574 l 5.397318,0.5674 v 111.5497 l 26.945124,7.2197 V 2161.22 l -26.945124,-9.1969 -18.872062,140.2888 z m -71.332778,23.5098 5.2009,1.1524 v 65.2479 l -5.2009,2.1585 z"
       style="font-variation-settings:'wght' 700;fill:#0e2500;fill-opacity:1;stroke-width:116.837;stroke-linecap:round;stroke-linejoin:round"
       id="path8"
       transform="matrix(0.15406083,0,0,0.15406083,212.67404,1741.0713)" /></g></svg>